<svg xmlns:xlink="http://www.w3.org/1999/xlink" class="hidden ml-[.4%] grow h-auto" viewBox="0 0 1420 203" fill="none" xmlns="http://www.w3.org/2000/svg" width="1420"  height="203" ><path class="fill-current" d="M270.552 154.601V157.954C257.492 161.307 248.315 164.661 237.02 168.896L236.49 168.367V148.248L226.078 158.66C216.724 168.014 205.076 169.073 200.664 169.073C190.781 169.073 171.897 163.249 171.897 137.658V80.8302C171.897 66.7114 167.131 65.6525 162.543 65.6525H138.188V134.835C138.188 142.247 138.188 156.542 150.542 156.542C158.307 156.542 162.719 151.248 165.367 148.071L168.543 150.718C162.719 161.131 151.424 169.073 140.306 169.073C127.952 169.073 118.069 162.543 118.069 138.364V65.6525H105.185V61.9463C105.185 61.9463 113.656 56.1223 117.186 52.5926C124.599 45.0037 132.717 33.0027 135.541 28.5906H138.364V57.8871H192.545V136.776C192.545 140.129 194.663 155.131 210.723 155.131C217.959 155.131 225.195 151.777 231.725 146.483C233.843 144.541 235.608 142.071 235.608 134.129V77.3005C235.608 67.5938 234.725 62.4758 217.783 62.1228V58.0636H256.08V141.012C256.08 149.659 256.609 155.307 271.081 154.778L270.552 154.601ZM397.445 45.8862C410.328 45.8862 420.211 36.1795 420.211 23.1196C420.211 10.0597 410.152 0 397.268 0C384.385 0 373.972 10.5891 373.972 23.296C373.972 36.003 383.679 46.0626 397.268 46.0626L397.445 45.8862ZM427.624 163.072V166.779H376.796C352.264 166.779 341.322 169.249 341.322 169.249L340.44 168.543V153.719H339.911C335.498 160.249 326.674 169.249 308.673 169.249C299.319 169.249 264.728 164.484 264.728 115.068C264.728 83.301 287.671 55.5928 314.85 55.5928C325.262 55.5928 332.498 58.9461 340.44 66.0055V37.5914C340.44 30.3555 340.44 25.2374 329.851 25.2374C328.439 25.2374 325.968 25.2374 324.027 25.4139V21.5312C336.204 18.3545 348.029 15.0012 359.5 10.9421L360.736 11.4715V149.13C360.736 158.837 360.736 164.131 376.443 162.719C386.679 161.66 389.679 158.131 389.679 142.071V85.9483C389.679 71.653 385.091 71.4765 381.208 71.4765C377.855 71.4765 374.678 72.006 371.501 72.5354V68.8292C384.032 64.7701 396.386 60.1815 408.916 55.5928L409.799 56.2988V142.071C409.799 157.954 411.034 162.19 427.624 163.072ZM340.264 86.4778C338.499 70.0646 326.674 62.2993 315.379 62.2993C301.79 62.2993 285.377 74.1238 285.377 107.127C285.377 143.13 302.849 156.719 318.732 156.719C328.968 156.719 338.322 150.895 340.264 142.247V86.6542V86.4778ZM527.338 111.715C527.338 135.717 510.395 169.249 473.686 169.249C442.448 169.249 420.741 144.365 420.741 111.715C420.741 81.8891 440.507 55.5928 472.98 55.5928C505.454 55.5928 527.338 76.5946 527.338 111.715ZM505.63 118.775C505.63 88.7721 493.276 62.4758 471.039 62.4758C455.861 62.4758 442.448 75.0062 442.448 100.244C442.448 118.069 448.096 162.719 477.04 162.719C489.394 162.719 505.63 153.542 505.63 118.951V118.775ZM27.1787 43.4154C27.1787 29.2965 39.1797 22.2371 51.0042 22.2371C73.0649 22.2371 88.2426 38.2973 94.0666 55.0634H100.244L95.655 12.8834H90.7134C90.1839 15.3542 89.125 20.6488 82.4186 20.6488C76.5946 20.6488 63.7112 12.8834 49.5923 12.8834C28.4141 12.8834 6.88292 25.5904 6.88292 51.5337C6.88292 74.1238 22.0607 84.1834 43.7683 96.1844C78.5359 115.774 82.2421 123.54 82.2421 136.6C82.2421 148.954 72.7119 161.837 53.828 161.837C21.8842 161.837 9.88317 132.187 5.47104 121.422H0L7.05941 169.779H12.1775C12.1775 166.073 14.4718 162.19 19.4134 162.19C26.4728 162.19 38.1208 169.955 55.9458 169.955C89.6545 169.955 105.715 148.071 105.715 128.658C105.715 81.8891 26.8258 77.3005 26.8258 43.2389L27.1787 43.4154ZM575.165 15.3542H605.874V74.6532H665.349V15.3542H696.058V166.779H665.349V100.067H605.874V166.779H575.165V15.3542ZM713.706 179.662H723.942C729.766 179.662 733.826 178.25 736.296 175.603C738.767 172.956 740.003 169.249 740.003 164.837C740.003 163.425 740.003 161.837 739.65 160.072C739.297 158.307 738.944 156.366 738.238 154.072C737.532 151.777 736.826 149.13 735.767 146.13C734.708 143.13 733.473 139.6 731.884 135.364L702.588 58.0636H732.943L749.003 106.95C749.886 109.421 750.592 112.068 751.474 114.892C752.18 117.716 753.062 120.186 753.768 122.657C754.474 125.304 755.18 127.952 756.063 130.776H756.416C756.945 128.128 757.651 125.481 758.357 122.657C758.886 120.186 759.592 117.716 760.298 114.892C761.004 112.068 761.887 109.421 762.769 106.95L777.947 58.0636H806.89L768.946 169.426C766.828 175.426 764.71 180.544 762.416 184.78C760.122 189.016 757.651 192.369 754.827 195.016C752.004 197.663 748.474 199.428 744.591 200.664C740.708 201.723 735.943 202.429 730.472 202.429H713.53V179.838L713.706 179.662ZM811.656 58.0636H839.364V71.653H840.07C843.599 66.8879 848.011 62.8287 853.13 59.8285C858.248 56.6518 864.601 55.2399 872.013 55.2399C879.426 55.2399 885.779 56.6518 891.427 59.4755C897.074 62.2993 902.192 66.182 906.428 71.3C910.664 76.2416 913.84 82.4186 915.958 89.478C918.076 96.5374 919.311 104.303 919.311 112.774C919.311 121.245 918.253 129.54 915.958 136.6C913.664 143.659 910.487 149.836 906.252 154.778C902.016 159.719 897.074 163.602 891.25 166.249C885.426 168.896 879.073 170.308 872.19 170.308C864.601 170.308 858.248 168.896 853.13 166.073C848.011 163.249 843.952 159.543 840.776 154.778H840.423V202.605H811.656V58.0636ZM866.013 145.953C873.425 145.953 879.249 143.13 883.485 137.306C887.721 131.658 890.015 123.54 890.015 113.304C890.015 103.067 888.074 94.5961 884.191 88.0661C880.308 81.5362 873.955 78.3594 864.954 78.3594C860.365 78.3594 856.659 79.2419 853.483 81.1832C850.306 82.948 847.658 85.4188 845.717 88.5956C843.599 91.7723 842.187 95.4785 841.305 99.7141C840.423 103.95 839.893 108.538 839.893 113.304C839.893 123.187 842.187 131.129 846.6 136.953C851.012 142.777 857.542 145.777 866.189 145.777L866.013 145.953ZM980.022 169.955C971.022 169.955 962.903 168.543 956.02 165.543C948.961 162.543 943.137 158.484 938.372 153.366C933.607 148.248 929.901 142.071 927.43 135.011C924.959 127.952 923.724 120.363 923.724 112.421C923.724 104.479 924.959 96.8904 927.606 89.831C930.254 82.7716 933.96 76.7711 938.548 71.653C943.313 66.5349 948.961 62.4758 955.491 59.652C962.021 56.6518 969.257 55.2399 977.199 55.2399C986.023 55.2399 993.612 56.8282 1000.32 60.005C1007.02 63.1817 1012.5 67.5938 1017.08 73.4178C1021.67 79.2419 1025.03 86.1248 1027.32 94.0666C1029.61 102.008 1030.85 110.833 1030.85 120.716H952.138C953.197 129.187 956.197 135.894 960.785 140.659C965.374 145.424 971.728 147.895 980.022 147.895C985.67 147.895 990.259 146.659 993.612 144.365C996.965 141.894 999.436 138.717 1001.02 134.658H1029.44C1028.38 139.423 1026.61 144.012 1023.97 148.248C1021.32 152.483 1017.97 156.366 1013.73 159.543C1009.5 162.719 1004.73 165.367 999.083 167.308C993.435 169.249 987.082 170.132 980.199 170.132L980.022 169.955ZM977.728 77.477C970.139 77.477 964.315 79.5948 960.433 83.654C956.55 87.8896 953.903 93.5372 952.667 100.773H1001.02C1000.67 93.8901 998.377 88.2426 994.141 84.007C989.906 79.7713 984.611 77.477 977.905 77.477H977.728ZM1068.26 75.5357H1068.97C1072.15 69.3587 1075.85 64.5936 1079.91 61.5933C1083.97 58.5931 1089.27 57.0047 1095.62 57.0047C1098.62 57.0047 1100.91 57.3577 1102.33 57.8871V83.1245H1101.62C1092.09 82.0656 1084.33 84.1834 1078.32 89.3015C1072.32 94.4196 1069.15 102.714 1069.15 114.009V166.955H1040.38V58.0636H1068.09V75.3592L1068.26 75.5357ZM1111.33 15.3542H1140.09V166.779H1111.33V15.3542ZM1156.15 58.0636H1184.92V166.779H1156.15V58.0636ZM1228.69 72.8884H1229.4C1233.1 66.8879 1237.51 62.4758 1242.63 59.4755C1247.75 56.4753 1254.1 55.0634 1261.52 55.0634C1267.16 55.0634 1272.28 56.1223 1276.87 58.0636C1281.46 60.1815 1285.34 63.0052 1288.69 66.5349C1292.05 70.0646 1294.52 74.4768 1296.28 79.4183C1298.05 84.3599 1299.11 89.831 1299.11 95.655V166.602H1270.34V99.8906C1270.34 93.8901 1268.75 89.125 1265.4 85.4188C1262.22 81.7127 1257.46 79.9478 1251.46 79.9478C1245.46 79.9478 1239.81 82.2421 1235.75 86.8307C1231.51 91.4193 1229.57 97.4198 1229.57 105.009V166.602H1200.81V58.0636H1229.04V72.8884H1228.69ZM1354.7 117.186L1342.17 130.07V166.779H1313.58V15.3542H1342.17V99.1847L1380.64 58.0636H1415.23L1375.17 99.3612L1420 166.779H1385.06L1354.52 117.186H1354.7ZM1170.8 0C1183.69 0 1193.57 10.4126 1193.57 23.296C1193.57 36.1795 1183.69 46.0626 1170.8 46.0626C1157.21 46.0626 1147.51 36.1795 1147.51 23.296C1147.51 10.4126 1157.39 0 1170.8 0Z" fill="#231F20"></path></svg>