<svg xmlns:xlink="http://www.w3.org/1999/xlink" class="sm:hidden block ml-[.75%] grow h-auto" viewBox="0 0 1364 607" fill="none" xmlns="http://www.w3.org/2000/svg" width="1364"  height="607" ><path class="fill-current" d="M693.11 249.405V254.815C672.029 260.224 657.216 265.634 638.983 272.467L638.129 271.613V239.156L621.321 255.954C606.222 271.043 587.42 272.751 580.298 272.751C564.345 272.751 533.863 263.356 533.863 222.073V130.397C533.863 107.62 526.171 105.912 518.764 105.912H479.451V217.518C479.451 229.476 479.451 252.537 499.393 252.537C511.927 252.537 519.049 243.996 523.322 238.871L528.45 243.142C519.049 259.94 500.817 272.751 482.87 272.751C462.928 272.751 446.975 262.217 446.975 223.212V105.912H426.179V99.933C426.179 99.933 439.853 90.5376 445.551 84.8434C457.515 72.6009 470.62 53.2407 475.178 46.1229H479.736V93.3847H567.194V220.65C567.194 226.059 570.612 250.259 596.536 250.259C608.216 250.259 619.896 244.85 630.437 236.309C633.855 233.177 636.704 229.191 636.704 216.379V124.703C636.704 109.044 635.28 100.787 607.932 100.218V93.6694H669.75V227.483C669.75 241.433 670.605 250.544 693.965 249.69L693.11 249.405ZM897.938 74.0244C918.734 74.0244 934.688 58.3654 934.688 37.2969C934.688 16.2285 918.734 -0.284668 897.938 -0.284668C877.142 -0.284668 860.334 16.7979 860.334 37.2969C860.334 57.796 876.003 74.0244 897.938 74.0244ZM946.652 263.071V269.05H864.607C825.009 269.05 807.347 273.036 807.347 273.036L805.922 271.897V247.982H805.068C797.946 258.516 783.702 273.036 754.644 273.036C739.546 273.036 683.709 265.349 683.709 185.63C683.709 134.383 720.744 89.6834 764.615 89.6834C781.423 89.6834 793.103 95.0929 805.922 106.481V60.6431C805.922 48.97 805.922 40.7135 788.83 40.7135C786.551 40.7135 782.562 40.7135 779.429 40.9982V34.7346C799.085 29.6098 818.172 24.2003 836.689 17.652L838.683 18.5061V240.579C838.683 256.238 838.683 264.78 864.038 262.502C880.561 260.794 885.404 255.099 885.404 229.191V138.653C885.404 115.592 877.997 115.307 871.729 115.307C866.317 115.307 861.189 116.161 856.061 117.016V111.037C876.287 104.488 896.229 97.0859 916.455 89.6834L917.88 90.8223V229.191C917.88 254.815 919.874 261.648 946.652 263.071ZM805.637 139.508C802.789 113.03 783.702 100.502 765.47 100.502C743.534 100.502 717.04 119.578 717.04 172.819C717.04 230.899 745.243 252.822 770.882 252.822C787.405 252.822 802.504 243.426 805.637 229.476V139.792V139.508ZM1107.61 180.221C1107.61 218.941 1080.26 273.036 1021.01 273.036C970.582 273.036 935.542 232.892 935.542 180.221C935.542 132.105 967.449 89.6834 1019.87 89.6834C1072.28 89.6834 1107.61 123.564 1107.61 180.221ZM1072.57 191.609C1072.57 143.209 1052.63 100.787 1016.73 100.787C992.233 100.787 970.582 121.001 970.582 161.715C970.582 190.47 979.698 262.502 1026.42 262.502C1046.36 262.502 1072.57 247.697 1072.57 191.894V191.609ZM300.262 70.0385C300.262 47.2618 319.634 35.8734 338.721 35.8734C374.331 35.8734 398.83 61.7819 408.231 88.8293H418.202L410.795 20.7838H402.819C401.964 24.7697 400.255 33.311 389.429 33.311C380.028 33.311 359.232 20.7838 336.442 20.7838C302.256 20.7838 267.501 41.2829 267.501 83.4198C267.501 119.863 292.001 136.091 327.041 155.451C383.162 187.054 389.145 199.581 389.145 220.65C389.145 240.579 373.761 261.363 343.279 261.363C291.716 261.363 272.344 213.532 265.222 196.165H256.391L267.786 274.175H276.048C276.048 268.196 279.751 261.932 287.728 261.932C299.123 261.932 317.925 274.46 346.698 274.46C401.109 274.46 427.033 239.156 427.033 207.838C427.033 132.39 299.693 124.987 299.693 70.0385H300.262ZM0 305.493H49.5689V401.155H145.573V305.493H195.142V549.773H145.573V442.153H49.5689V549.773H0V305.493ZM223.63 570.557H240.153C249.554 570.557 256.106 568.28 260.094 564.009C264.083 559.738 266.077 553.759 266.077 546.642C266.077 544.364 266.077 541.802 265.507 538.955C264.937 536.107 264.368 532.976 263.228 529.274C262.089 525.573 260.949 521.303 259.24 516.462C257.531 511.622 255.536 505.928 252.972 499.095L205.683 374.393H254.682L280.606 453.257C282.03 457.243 283.17 461.514 284.594 466.069C285.733 470.624 287.158 474.61 288.297 478.596C289.437 482.867 290.576 487.137 292.001 491.693H292.571C293.425 487.422 294.565 483.152 295.704 478.596C296.559 474.61 297.698 470.624 298.838 466.069C299.977 461.514 301.402 457.243 302.826 453.257L327.326 374.393H374.046L312.797 554.044C309.378 563.724 305.96 571.981 302.256 578.814C298.553 585.647 294.565 591.056 290.007 595.327C285.449 599.598 279.751 602.445 273.484 604.438C267.216 606.146 259.525 607.285 250.693 607.285H223.345V570.842L223.63 570.557ZM381.738 374.393H426.464V396.315H427.603C433.301 388.628 440.423 382.08 448.684 377.24C456.946 372.115 467.201 369.837 479.166 369.837C491.131 369.837 501.387 372.115 510.503 376.67C519.619 381.226 527.881 387.489 534.718 395.746C541.555 403.718 546.683 413.683 550.101 425.071C553.52 436.459 555.514 448.986 555.514 462.652C555.514 476.319 553.804 489.7 550.101 501.088C546.398 512.477 541.27 522.441 534.433 530.413C527.596 538.385 519.619 544.649 510.218 548.919C500.817 553.19 490.561 555.468 479.451 555.468C467.201 555.468 456.946 553.19 448.684 548.635C440.423 544.079 433.871 538.1 428.743 530.413H428.173V607.569H381.738V374.962V374.393ZM469.48 516.178C481.445 516.178 490.846 511.622 497.683 502.227C504.52 493.116 508.224 480.02 508.224 463.507C508.224 446.993 505.09 433.327 498.823 422.793C492.556 412.259 482.3 407.134 467.771 407.134C460.364 407.134 454.382 408.558 449.254 411.69C444.126 414.537 439.853 418.523 436.719 423.647C433.301 428.772 431.022 434.751 429.597 441.584C428.173 448.417 427.318 455.819 427.318 463.507C427.318 479.45 431.022 492.262 438.144 501.658C445.266 511.053 455.806 515.893 469.765 515.893L469.48 516.178ZM653.512 554.898C638.983 554.898 625.879 552.621 614.769 547.781C603.373 542.94 593.972 536.392 586.281 528.136C578.589 519.879 572.606 509.914 568.618 498.526C564.63 487.137 562.636 474.895 562.636 462.083C562.636 449.271 564.63 437.029 568.903 425.64C573.176 414.252 579.159 404.572 586.566 396.315C594.257 388.059 603.373 381.51 613.914 376.955C624.454 372.115 636.135 369.837 648.954 369.837C663.198 369.837 675.448 372.4 686.273 377.524C697.099 382.649 705.93 389.767 713.337 399.162C720.744 408.558 726.156 419.661 729.86 432.473C733.563 445.285 735.557 459.521 735.557 475.464H608.501C610.211 489.13 615.053 499.949 622.46 507.637C629.867 515.324 640.123 519.31 653.512 519.31C662.628 519.31 670.035 517.317 675.448 513.615C680.86 509.63 684.849 504.505 687.413 497.956H733.278C731.569 505.644 728.72 513.046 724.447 519.879C720.174 526.712 714.761 532.976 707.924 538.1C701.087 543.225 693.395 547.496 684.279 550.628C675.163 553.759 664.907 555.183 653.797 555.183L653.512 554.898ZM649.809 405.711C637.559 405.711 628.158 409.127 621.891 415.675C615.623 422.508 611.35 431.619 609.356 443.292H687.413C686.843 432.189 683.14 423.078 676.302 416.245C669.465 409.412 660.919 405.711 650.094 405.711H649.809ZM795.952 402.579H797.091C802.219 392.614 808.201 384.927 814.754 380.087C821.306 375.247 829.852 372.684 840.108 372.684C844.951 372.684 848.654 373.254 850.933 374.108V414.821H849.794C834.41 413.113 821.876 416.53 812.19 424.786C802.504 433.043 797.376 446.424 797.376 464.645V550.058H750.941V374.677H795.667V402.579H795.952ZM865.462 305.493H911.897V549.773H865.462V305.493ZM937.821 374.393H984.256V549.773H937.821V374.393ZM1054.91 398.308H1056.05C1062.03 388.628 1069.15 381.51 1077.41 376.67C1085.67 371.83 1095.93 369.553 1107.89 369.553C1117.01 369.553 1125.27 371.261 1132.68 374.393C1140.09 377.809 1146.35 382.364 1151.77 388.059C1157.18 393.753 1161.17 400.871 1164.02 408.842C1166.86 416.814 1168.57 425.64 1168.57 435.036V549.489H1122.14V441.869C1122.14 432.189 1119.57 424.501 1114.16 418.523C1109.03 412.544 1101.34 409.697 1091.66 409.697C1081.97 409.697 1072.85 413.398 1066.3 420.8C1059.46 428.203 1056.33 437.883 1056.33 450.125V549.489H1009.9V374.108H1055.48V398.023L1054.91 398.308ZM1258.31 469.77L1238.08 490.554V549.773H1191.93V305.493H1238.08V440.73L1300.19 374.393H1356.02L1291.36 441.015L1363.72 549.773H1307.31L1258.03 469.77H1258.31ZM961.466 280.723C982.262 280.723 998.216 297.521 998.216 318.305C998.216 339.089 982.262 355.032 961.466 355.032C939.53 355.032 923.862 339.089 923.862 318.305C923.862 297.521 939.815 280.723 961.466 280.723Z" fill="#231F20"></path></svg>